<svg xmlns="http://www.w3.org/2000/svg" xmlns:xlink="http://www.w3.org/1999/xlink" width="2475" height="11" viewBox="0 0 2475 11">
  <defs>
    <clipPath id="clip-path">
      <rect width="2475" height="11" fill="none"/>
    </clipPath>
  </defs>
  <g id="Repeat_Grid_21" data-name="Repeat Grid 21" opacity="0.83" clip-path="url(#clip-path)">
    <g transform="translate(-171 -123)">
      <text id="_180" data-name="180" transform="translate(171 131)" fill="#ff0048" font-size="10" font-family="CourierNewPSMT, Courier New"><tspan x="0" y="0">180</tspan></text>
    </g>
    <g transform="translate(-77 -123)">
      <text id="_334" data-name="334" transform="translate(171 131)" fill="#ff0048" font-size="10" font-family="CourierNewPSMT, Courier New"><tspan x="0" y="0">334</tspan></text>
    </g>
    <g transform="translate(17 -123)">
      <text id="_12x" data-name="12x" transform="translate(171 131)" fill="#ff0048" font-size="10" font-family="CourierNewPSMT, Courier New"><tspan x="0" y="0">12x</tspan></text>
    </g>
    <g transform="translate(111 -123)">
      <text id="y76" transform="translate(171 131)" fill="#ff0048" font-size="10" font-family="CourierNewPSMT, Courier New"><tspan x="0" y="0">y76</tspan></text>
    </g>
    <g transform="translate(205 -123)">
      <text id="_547" data-name="547" transform="translate(171 131)" fill="#ff0048" font-size="10" font-family="CourierNewPSMT, Courier New"><tspan x="0" y="0">547</tspan></text>
    </g>
    <g transform="translate(299 -123)">
      <text id="_230" data-name="230" transform="translate(171 131)" fill="#ff0048" font-size="10" font-family="CourierNewPSMT, Courier New"><tspan x="0" y="0">230</tspan></text>
    </g>
    <g transform="translate(393 -123)">
      <text id="Z10" transform="translate(171 131)" fill="#ff0048" font-size="10" font-family="CourierNewPSMT, Courier New"><tspan x="0" y="0">Z10</tspan></text>
    </g>
    <g transform="translate(487 -123)">
      <text id="_857" data-name="857" transform="translate(171 131)" fill="#ff0048" font-size="10" font-family="CourierNewPSMT, Courier New"><tspan x="0" y="0">857</tspan></text>
    </g>
    <g transform="translate(581 -123)">
      <text id="_199" data-name="199" transform="translate(171 131)" fill="#ff0048" font-size="10" font-family="CourierNewPSMT, Courier New"><tspan x="0" y="0">199</tspan></text>
    </g>
    <g transform="translate(675 -123)">
      <text id="_010" data-name="010" transform="translate(171 131)" fill="#ff0048" font-size="10" font-family="CourierNewPSMT, Courier New"><tspan x="0" y="0">010</tspan></text>
    </g>
    <g transform="translate(769 -123)">
      <text id="_680" data-name="680" transform="translate(171 131)" fill="#ff0048" font-size="10" font-family="CourierNewPSMT, Courier New"><tspan x="0" y="0">680</tspan></text>
    </g>
    <g transform="translate(863 -123)">
      <text id="_55y" data-name="55y" transform="translate(171 131)" fill="#ff0048" font-size="10" font-family="CourierNewPSMT, Courier New"><tspan x="0" y="0">55y</tspan></text>
    </g>
    <g transform="translate(957 -123)">
      <text id="_100" data-name="100" transform="translate(171 131)" fill="#ff0048" font-size="10" font-family="CourierNewPSMT, Courier New"><tspan x="0" y="0">100</tspan></text>
    </g>
    <g transform="translate(1051 -123)">
      <text id="_095" data-name="095" transform="translate(171 131)" fill="#ff0048" font-size="10" font-family="CourierNewPSMT, Courier New"><tspan x="0" y="0">095</tspan></text>
    </g>
    <g transform="translate(1145 -123)">
      <text id="x78" transform="translate(171 131)" fill="#ff0048" font-size="10" font-family="CourierNewPSMT, Courier New"><tspan x="0" y="0">x78</tspan></text>
    </g>
    <g transform="translate(1239 -123)">
      <text id="_335" data-name="335" transform="translate(171 131)" fill="#ff0048" font-size="10" font-family="CourierNewPSMT, Courier New"><tspan x="0" y="0">335</tspan></text>
    </g>
    <g transform="translate(1333 -123)">
      <text id="_650" data-name="650" transform="translate(171 131)" fill="#ff0048" font-size="10" font-family="CourierNewPSMT, Courier New"><tspan x="0" y="0">650</tspan></text>
    </g>
    <g transform="translate(1427 -123)">
      <text id="_750" data-name="750" transform="translate(171 131)" fill="#ff0048" font-size="10" font-family="CourierNewPSMT, Courier New"><tspan x="0" y="0">750</tspan></text>
    </g>
    <g transform="translate(1521 -123)">
      <text id="x30" transform="translate(171 131)" fill="#ff0048" font-size="10" font-family="CourierNewPSMT, Courier New"><tspan x="0" y="0">x30</tspan></text>
    </g>
    <g transform="translate(1615 -123)">
      <text id="_100-2" data-name="100" transform="translate(171 131)" fill="#ff0048" font-size="10" font-family="CourierNewPSMT, Courier New"><tspan x="0" y="0">100</tspan></text>
    </g>
    <g transform="translate(1709 -123)">
      <text id="z80" transform="translate(171 131)" fill="#ff0048" font-size="10" font-family="CourierNewPSMT, Courier New"><tspan x="0" y="0">z80</tspan></text>
    </g>
    <g transform="translate(1803 -123)">
      <text id="_300" data-name="300" transform="translate(171 131)" fill="#ff0048" font-size="10" font-family="CourierNewPSMT, Courier New"><tspan x="0" y="0">300</tspan></text>
    </g>
    <g transform="translate(1897 -123)">
      <text id="_180-2" data-name="180" transform="translate(171 131)" fill="#ff0048" font-size="10" font-family="CourierNewPSMT, Courier New"><tspan x="0" y="0">180</tspan></text>
    </g>
    <g transform="translate(1991 -123)">
      <text id="_20y" data-name="20y" transform="translate(171 131)" fill="#ff0048" font-size="10" font-family="CourierNewPSMT, Courier New"><tspan x="0" y="0">20y</tspan></text>
    </g>
    <g transform="translate(2085 -123)">
      <text id="xyz" transform="translate(171 131)" fill="#ff0048" font-size="10" font-family="CourierNewPSMT, Courier New"><tspan x="0" y="0">xyz</tspan></text>
    </g>
    <g transform="translate(2179 -123)">
      <text id="_555" data-name="555" transform="translate(171 131)" fill="#ff0048" font-size="10" font-family="CourierNewPSMT, Courier New"><tspan x="0" y="0">555</tspan></text>
    </g>
    <g transform="translate(2273 -123)">
      <text id="_410" data-name="410" transform="translate(171 131)" fill="#ff0048" font-size="10" font-family="CourierNewPSMT, Courier New"><tspan x="0" y="0">410</tspan></text>
    </g>
  </g>
</svg>
