<svg xmlns="http://www.w3.org/2000/svg" xmlns:xlink="http://www.w3.org/1999/xlink" width="2267" height="11" viewBox="0 0 2267 11"><defs><style>.a{fill:none;}.b{clip-path:url(#a);}.c{fill:#ff0048;font-size:10px;font-family:CourierNewPSMT, Courier New;}</style><clipPath id="a"><rect class="a" width="2267" height="11"/></clipPath></defs><g class="b"><g transform="translate(-171 -123)"><text class="c" transform="translate(171 131)"><tspan x="0" y="0">180</tspan></text></g><g transform="translate(-85 -123)"><text class="c" transform="translate(171 131)"><tspan x="0" y="0">180</tspan></text></g><g transform="translate(1 -123)"><text class="c" transform="translate(171 131)"><tspan x="0" y="0">180</tspan></text></g><g transform="translate(87 -123)"><text class="c" transform="translate(171 131)"><tspan x="0" y="0">180</tspan></text></g><g transform="translate(173 -123)"><text class="c" transform="translate(171 131)"><tspan x="0" y="0">180</tspan></text></g><g transform="translate(259 -123)"><text class="c" transform="translate(171 131)"><tspan x="0" y="0">180</tspan></text></g><g transform="translate(345 -123)"><text class="c" transform="translate(171 131)"><tspan x="0" y="0">180</tspan></text></g><g transform="translate(431 -123)"><text class="c" transform="translate(171 131)"><tspan x="0" y="0">180</tspan></text></g><g transform="translate(517 -123)"><text class="c" transform="translate(171 131)"><tspan x="0" y="0">180</tspan></text></g><g transform="translate(603 -123)"><text class="c" transform="translate(171 131)"><tspan x="0" y="0">180</tspan></text></g><g transform="translate(689 -123)"><text class="c" transform="translate(171 131)"><tspan x="0" y="0">180</tspan></text></g><g transform="translate(775 -123)"><text class="c" transform="translate(171 131)"><tspan x="0" y="0">180</tspan></text></g><g transform="translate(861 -123)"><text class="c" transform="translate(171 131)"><tspan x="0" y="0">180</tspan></text></g><g transform="translate(947 -123)"><text class="c" transform="translate(171 131)"><tspan x="0" y="0">180</tspan></text></g><g transform="translate(1033 -123)"><text class="c" transform="translate(171 131)"><tspan x="0" y="0">180</tspan></text></g><g transform="translate(1119 -123)"><text class="c" transform="translate(171 131)"><tspan x="0" y="0">180</tspan></text></g><g transform="translate(1205 -123)"><text class="c" transform="translate(171 131)"><tspan x="0" y="0">180</tspan></text></g><g transform="translate(1291 -123)"><text class="c" transform="translate(171 131)"><tspan x="0" y="0">180</tspan></text></g><g transform="translate(1377 -123)"><text class="c" transform="translate(171 131)"><tspan x="0" y="0">180</tspan></text></g><g transform="translate(1463 -123)"><text class="c" transform="translate(171 131)"><tspan x="0" y="0">180</tspan></text></g><g transform="translate(1549 -123)"><text class="c" transform="translate(171 131)"><tspan x="0" y="0">180</tspan></text></g><g transform="translate(1635 -123)"><text class="c" transform="translate(171 131)"><tspan x="0" y="0">180</tspan></text></g><g transform="translate(1721 -123)"><text class="c" transform="translate(171 131)"><tspan x="0" y="0">180</tspan></text></g><g transform="translate(1807 -123)"><text class="c" transform="translate(171 131)"><tspan x="0" y="0">180</tspan></text></g><g transform="translate(1893 -123)"><text class="c" transform="translate(171 131)"><tspan x="0" y="0">180</tspan></text></g><g transform="translate(1979 -123)"><text class="c" transform="translate(171 131)"><tspan x="0" y="0">180</tspan></text></g><g transform="translate(2065 -123)"><text class="c" transform="translate(171 131)"><tspan x="0" y="0">180</tspan></text></g></g></svg>