<svg xmlns="http://www.w3.org/2000/svg" xmlns:xlink="http://www.w3.org/1999/xlink" width="681" height="511" viewBox="0 0 681 511"><defs><style>.a,.e{fill:none;}.a{stroke:#a8a8a8;}.b{clip-path:url(#a);}.c,.f{fill:#ff0048;}.d{fill:#51fff5;}.f{mix-blend-mode:lighten;isolation:isolate;}.g,.h{stroke:none;}.h{fill:#fff;}</style><clipPath id="a"><rect class="a" width="681" height="511" transform="translate(0 172)"/></clipPath></defs><g class="b" transform="translate(0 -172)"><g transform="translate(0 -543)"><path class="c" d="M100,0,200,174H0Z" transform="translate(345 787)"/><path class="d" d="M100,0,200,174H0Z" transform="translate(130 980)"/><g class="e" transform="translate(-37 980)"><path class="g" d="M100,0,200,174H0Z"/><path class="h" d="M 100 4.013778686523438 L 3.456192016601563 172 L 196.5438079833984 172 L 100 4.013778686523438 M 100 0 L 200 174 L 0 174 L 100 0 Z"/></g><path class="f" d="M48.64,95H62.51L38.19,29.545H23.94L-.475,95h14.06L18.81,79.325H43.32ZM22.7,67.83,30.97,43.225,39.33,67.83Zm75.62,28.025c18.81,0,31.825-10.83,31.825-35.055H97.185V71.535H115.71a8.045,8.045,0,0,1-.38,1.615c-1.71,6.84-8.455,10.925-17,10.925C86.925,84.075,78.09,74,78.09,62.32s8.835-21.375,20.235-21.375a19.967,19.967,0,0,1,14.63,6.46l9.6-8.265A32.3,32.3,0,0,0,98.325,28.69a33.583,33.583,0,0,0,0,67.165ZM140.6,95H153.8V29.545H140.6Zm29.165,0h38V83.315H182.97V29.545H169.765ZM230.85,83.315V68.685h24.415V56.81H230.85V41.23h27.835V29.545h-41.04V95h41.9V83.315Z" transform="translate(147 903)"/></g></g></svg>