<svg xmlns="http://www.w3.org/2000/svg" xmlns:xlink="http://www.w3.org/1999/xlink" width="375" height="385.001" viewBox="0 0 375 385.001"><defs><style>.a{fill:url(#a);}.b{fill:none;stroke:#000;stroke-linecap:round;stroke-dasharray:2 5;}</style><linearGradient id="a" x1="0.388" y1="0.325" x2="0.577" y2="1.055" gradientUnits="objectBoundingBox"><stop offset="0" stop-color="#51fff5"/><stop offset="1" stop-color="#2dbdd4"/></linearGradient></defs><g transform="translate(-1486 -753)"><path class="a" d="M-3158,385h-375V299.929a7.029,7.029,0,0,0,6-6.928,7.03,7.03,0,0,0-6-6.929V10a10.011,10.011,0,0,1,10-10h355a10.011,10.011,0,0,1,10,10V286a6.956,6.956,0,0,0-4.947,2.053A6.953,6.953,0,0,0-3165,293a7.007,7.007,0,0,0,7,7v85h0Z" transform="translate(5019 753)"/><path class="b" d="M0,0H357" transform="translate(1496.5 1045.5)"/></g></svg>