<svg xmlns="http://www.w3.org/2000/svg" xmlns:xlink="http://www.w3.org/1999/xlink" width="681" height="511" viewBox="0 0 681 511"><defs><style>.a{fill:none;stroke:#a8a8a8;}.b{clip-path:url(#a);}.c{fill:#fff;opacity:0.88;}.c,.d{mix-blend-mode:screen;isolation:isolate;}.d{fill:#51fff5;opacity:0.95;}.e{opacity:0.85;fill:url(#b);}</style><clipPath id="a"><rect class="a" width="681" height="511" transform="translate(937 172)"/></clipPath><linearGradient id="b" x1="0.5" x2="0.5" y2="1" gradientUnits="objectBoundingBox"><stop offset="0" stop-color="#51fff5"/><stop offset="1" stop-color="#ff0048"/></linearGradient></defs><g class="b" transform="translate(-937 -172)"><path class="c" d="M197.175,150.028,355.1,137.136c21.031-1.717,36.688,13.94,34.971,34.971L375.712,347.948c-1.717,21.031-20.158,39.472-41.189,41.189L176.6,402.03c-21.031,1.717-36.688-13.94-34.971-34.971l14.355-175.841C157.7,170.186,176.144,151.745,197.175,150.028Z" transform="translate(1212.253 138.048) rotate(45)"/><path class="d" d="M197.175,150.028,355.1,137.136c21.031-1.717,36.688,13.94,34.971,34.971L375.712,347.948c-1.717,21.031-20.158,39.472-41.189,41.189L176.6,402.03c-21.031,1.717-36.688-13.94-34.971-34.971l14.355-175.841C157.7,170.186,176.144,151.745,197.175,150.028Z" transform="translate(1307.253 -13.154) rotate(45)"/><path class="e" d="M197.175,150.028,355.1,137.136c21.031-1.717,36.688,13.94,34.971,34.971L375.712,347.948c-1.717,21.031-20.158,39.472-41.189,41.189L176.6,402.03c-21.031,1.717-36.688-13.94-34.971-34.971l14.355-175.841C157.7,170.186,176.144,151.745,197.175,150.028Z" transform="translate(1510.253 -43.374) rotate(45)"/></g></svg>