<svg xmlns="http://www.w3.org/2000/svg" xmlns:xlink="http://www.w3.org/1999/xlink" width="661.344" height="544.766" viewBox="0 0 661.344 544.766"><defs><style>.a{fill:#fff;opacity:0.88;}.a,.b{mix-blend-mode:screen;isolation:isolate;}.b{fill:#51fff5;opacity:0.95;}.c{opacity:0.85;fill:url(#a);}</style><linearGradient id="a" x1="0.5" x2="0.5" y2="1" gradientUnits="objectBoundingBox"><stop offset="0" stop-color="#51fff5"/><stop offset="1" stop-color="#ff0048"/></linearGradient></defs><g transform="translate(-787.941 -217.562)"><path class="a" d="M197.175,150.028,355.1,137.136c21.031-1.717,36.688,13.94,34.971,34.971L375.712,347.948c-1.717,21.031-20.158,39.472-41.189,41.189L176.6,402.03c-21.031,1.717-36.688-13.94-34.971-34.971l14.355-175.841C157.7,170.186,176.144,151.745,197.175,150.028Z" transform="translate(972.253 202.048) rotate(45)"/><path class="b" d="M197.175,150.028,355.1,137.136c21.031-1.717,36.688,13.94,34.971,34.971L375.712,347.948c-1.717,21.031-20.158,39.472-41.189,41.189L176.6,402.03c-21.031,1.717-36.688-13.94-34.971-34.971l14.355-175.841C157.7,170.186,176.144,151.745,197.175,150.028Z" transform="translate(1067.253 50.846) rotate(45)"/><path class="c" d="M197.175,150.028,355.1,137.136c21.031-1.717,36.688,13.94,34.971,34.971L375.712,347.948c-1.717,21.031-20.158,39.472-41.189,41.189L176.6,402.03c-21.031,1.717-36.688-13.94-34.971-34.971l14.355-175.841C157.7,170.186,176.144,151.745,197.175,150.028Z" transform="translate(1270.253 20.626) rotate(45)"/></g></svg>