<svg xmlns="http://www.w3.org/2000/svg" width="415.071" height="129.577" viewBox="0 0 415.071 129.577">
  <g id="Group_107" data-name="Group 107" transform="translate(-500 -121.851)">
    <g id="Group_106" data-name="Group 106" transform="translate(561.739 121.851)" style="isolation: isolate">
      <path id="Path_75" data-name="Path 75" d="M512.663,122.657h40.818c29.931,0,47.312,22.676,47.312,52.3,0,29.477-17.381,51.851-47.312,51.851H512.663Zm40.818,85.565c17.386,0,26.3-15.426,26.3-33.261s-8.917-33.709-26.3-33.709h-19.8v66.97Z" transform="translate(-512.663 -118.727)" fill="#ff0048"/>
      <path id="Path_76" data-name="Path 76" d="M606.987,172.582H553.776c2.116,8.161,8.766,12.7,18.293,12.7,7.1,0,14.207-2.872,18.439-7.864l11.638,11.638c-6.65,8.922-19.044,13.759-31.442,13.759-21.613,0-37.488-14.817-37.488-36.586,0-22.822,17.23-37.029,37.488-37.029,20.106,0,36.586,14.207,36.586,35.82C607.29,166.99,607.138,169.408,606.987,172.582Zm-19.5-12.852c-.6-8.313-7.557-13.3-16.479-13.3-8.01,0-15.114,3.779-17.23,13.3Z" transform="translate(-433.01 -93.37)" fill="#ff0048"/>
      <path id="Path_77" data-name="Path 77" d="M551.537,121.851h19.8V229.936h-19.8Z" transform="translate(-362.007 -121.851)" fill="#ff0048"/>
      <path id="Path_78" data-name="Path 78" d="M646.417,130.893v70.446h-19.8v-8.771c-4.993,6.957-14.817,10.131-22.681,10.131-18.137,0-34.616-14.056-34.616-36.737S585.8,129.23,603.937,129.23c8.166,0,17.688,3.023,22.681,10.127v-8.464Zm-20.4,35.069a18.293,18.293,0,1,0-18.293,18.293A18.215,18.215,0,0,0,626.013,165.962Z" transform="translate(-293.085 -93.254)" fill="#ff0048"/>
    </g>
    <rect id="Rectangle_574" data-name="Rectangle 574" width="58.506" height="19.502" transform="translate(500 231.926)" fill="#ff0048"/>
    <path id="Path_79" data-name="Path 79" d="M598.79,163.131V147.2H578.674V124.556h-19.5v65.493l.029.736c.9,11.882,10.2,29.555,32.13,29.555h7.459v-19.5h-7.459c-10.151,0-12.242-7.747-12.657-11.272V163.131Z" transform="translate(229.321 10.483)" fill="#ff0048"/>
  </g>
</svg>
